<?xml version="1.0" ?><svg clip-rule="evenodd" fill-rule="evenodd" image-rendering="optimizeQuality" shape-rendering="geometricPrecision" text-rendering="geometricPrecision" viewBox="0 0 500 500" xmlns="http://www.w3.org/2000/svg"><defs><linearGradient gradientUnits="userSpaceOnUse" id="a" x1="339.999" x2="339.999" y1="223.776" y2="442.562"><stop offset="0" stop-color="#008BFF"/><stop offset="1" stop-color="#0af"/></linearGradient><linearGradient gradientUnits="userSpaceOnUse" id="b" x1="234.999" x2="234.999" y1="83.799" y2="401.201"><stop offset="0" stop-color="#FCFCFD"/><stop offset="1" stop-color="#fff"/></linearGradient></defs><g stroke="#434242"><path d="M400 224h-120c-39 0-70 31-70 70v31c0 39 31 70 70 70h70c6 0 6 1 9 3l48 41c3 3 6 4 6 0l-6-41c-1-3 5-4 10-5 30-8 53-35 53-68v-31c0-39-31-70-70-70z" fill="url(#a)" stroke-width="10"/><path d="M140 70h190c60 0 110 49 110 110v50c0 61-50 110-110 110h-110c-10 0-10 2-15 5l-75 65c-5 4-10 5-10 0l10-65c1-5-9-6-17-8-47-12-83-56-83-107v-50c0-61 50-110 110-110z" fill="url(#b)" stroke-width="10"/><path d="M100 150h230m-230 100h180m-180-50h287" fill="none" stroke-linecap="round" stroke-width="20"/></g></svg>